<?xml version="1.0" standalone="no"?>
<!DOCTYPE svg PUBLIC "-//W3C//DTD SVG 20010904//EN"
 "http://www.w3.org/TR/2001/REC-SVG-20010904/DTD/svg10.dtd">
<svg version="1.0" xmlns="http://www.w3.org/2000/svg"
 width="640.000000pt" height="640.000000pt" viewBox="0 0 640.000000 640.000000"
 preserveAspectRatio="xMidYMid meet">

<g transform="translate(0.000000,640.000000) scale(0.100000,-0.100000)"
fill="#000000" stroke="none">
<path d="M0 5436 c0 -766 3 -965 13 -969 7 -2 18 -25 25 -51 14 -53 0 -134
-24 -143 -12 -4 -14 -187 -14 -1105 0 -730 3 -1097 10 -1093 6 3 10 18 11 33
0 15 13 63 28 107 30 89 17 83 136 67 56 -7 125 -37 125 -54 0 -4 10 -16 22
-28 12 -11 17 -20 11 -20 -6 0 -16 -14 -23 -31 -23 -54 -115 -97 -219 -102
l-54 -2 -12 -48 c-7 -27 -17 -53 -24 -60 -8 -8 -11 -267 -11 -974 l0 -963
2279 0 2278 0 7 48 c19 128 34 292 29 311 -3 12 -1 21 6 21 12 0 13 -14 11
-132 -1 -43 2 -78 7 -78 4 0 17 21 27 48 10 26 30 72 43 102 26 59 31 70 58
140 10 25 35 82 56 128 22 46 39 87 39 91 0 4 7 23 16 41 16 32 17 32 70 26
30 -3 102 -19 162 -35 59 -16 142 -35 185 -42 45 -8 73 -17 68 -22 -5 -5 -33
-3 -67 6 -33 8 -88 18 -124 22 -36 3 -105 13 -155 21 -89 15 -90 15 -107 -6
-10 -12 -18 -31 -18 -41 0 -11 -4 -27 -9 -37 -28 -56 -61 -134 -61 -143 0 -10
-43 -108 -71 -161 -5 -10 -9 -23 -9 -29 0 -7 -11 -35 -24 -63 -50 -103 -86
-189 -86 -202 0 -11 37 -14 195 -14 179 0 217 5 185 25 -6 4 -19 24 -30 46
-25 48 -44 49 -96 5 -49 -42 -77 -51 -94 -32 -10 13 -6 21 21 46 19 16 42 33
51 36 38 12 26 90 -18 129 -21 18 -25 51 -9 65 23 19 43 5 72 -55 16 -31 34
-55 43 -55 8 0 35 21 60 45 77 78 111 39 36 -42 -48 -50 -55 -73 -32 -93 17
-13 56 -90 56 -108 0 -7 13 -12 29 -12 28 0 29 1 20 38 -13 58 -11 143 7 203
37 127 140 269 196 269 15 0 28 -5 28 -11 0 -5 -22 -34 -49 -62 -51 -54 -104
-148 -116 -205 -4 -19 -1 -78 6 -133 l13 -99 66 0 c58 1 69 4 98 30 25 24 31
35 26 55 -3 13 -12 29 -20 36 -8 6 -22 27 -30 45 -13 27 -14 37 -4 49 23 28
44 17 70 -37 36 -75 46 -78 104 -23 27 25 57 44 65 43 32 -6 22 -38 -29 -88
l-51 -50 16 -30 c15 -29 18 -30 81 -30 60 0 64 1 50 16 -25 25 -10 34 59 34
76 0 95 -6 95 -31 0 -30 33 -23 73 15 65 61 191 86 234 46 12 -10 24 -33 28
-50 l7 -30 95 0 96 0 -6 54 c-5 51 -39 131 -78 188 -24 34 -24 45 2 53 54 17
118 -69 125 -168 8 -102 14 -127 30 -127 12 0 14 31 12 218 l-3 217 -105 22
c-95 20 -131 27 -280 52 -61 11 -241 48 -315 66 -33 8 -77 17 -97 20 -21 3
-38 10 -38 15 0 13 40 12 115 -1 33 -6 85 -14 115 -19 30 -4 111 -17 180 -29
69 -11 157 -25 195 -32 39 -6 102 -17 142 -25 40 -8 77 -14 83 -14 7 0 10 173
10 544 l0 545 -22 3 c-34 5 -36 45 -4 59 l26 12 0 1224 c0 1108 -1 1223 -16
1223 -46 0 -59 83 -23 144 12 20 25 36 30 36 5 0 9 437 9 1060 l0 1060 -695 0
c-675 0 -695 -1 -695 -19 0 -19 -23 -35 -34 -24 -3 4 -6 15 -6 25 0 20 -20 26
-20 6 -1 -16 -67 -67 -97 -74 -38 -10 -70 4 -83 36 -13 32 -30 32 -30 -1 0
-20 -81 -109 -100 -109 -14 0 -25 30 -13 39 5 3 21 22 36 42 33 43 36 79 7 79
-11 0 -20 -5 -20 -10 0 -6 -8 -14 -18 -17 -9 -4 -23 -13 -31 -20 -19 -20 -35
-11 -39 20 l-3 27 -293 0 -293 0 -7 -62 c-3 -35 -9 -103 -12 -151 -6 -69 -11
-90 -24 -97 -33 -18 -44 12 -37 103 6 93 5 95 -65 147 -26 19 -48 41 -48 48 0
8 -18 12 -58 12 -46 0 -60 -4 -70 -20 -11 -18 -10 -20 13 -20 17 0 25 -5 25
-18 0 -12 -21 -28 -67 -50 -91 -43 -110 -42 -104 6 1 6 -2 12 -7 12 -6 0 -13
7 -16 16 -8 21 20 54 45 54 10 0 21 5 24 10 4 6 -27 10 -84 10 l-91 0 0 -39
c0 -22 -4 -43 -10 -46 -24 -15 -8 -45 35 -71 49 -28 53 -38 28 -66 -16 -17
-17 -17 -49 7 -18 14 -39 25 -47 25 -8 0 -24 -20 -36 -45 -15 -32 -27 -45 -41
-45 -30 0 -33 21 -10 71 l20 44 -45 39 c-47 40 -54 56 -32 75 10 8 23 4 53
-19 48 -35 63 -28 71 29 l6 41 -1170 0 c-1028 0 -1172 -2 -1183 -15 -7 -8 -21
-15 -32 -15 -10 0 -21 7 -24 15 -5 13 -35 15 -186 15 l-179 0 6 -55 c8 -57 -3
-85 -31 -85 -28 0 -44 31 -44 86 l0 54 -245 0 -245 0 0 -964z m1522 917 c2 -5
37 -35 78 -67 41 -33 77 -62 80 -65 3 -4 31 -28 63 -54 31 -27 57 -53 57 -58
0 -15 -23 -9 -56 14 -17 12 -58 39 -90 61 -33 21 -75 53 -94 71 -54 50 -65 50
-117 2 -26 -23 -61 -58 -77 -77 -17 -19 -102 -106 -188 -194 -87 -88 -159
-164 -161 -169 -5 -16 -39 6 -34 22 3 9 29 84 57 166 29 83 53 168 54 191 1
44 16 52 42 22 15 -16 15 -25 4 -80 -6 -35 -14 -71 -17 -80 -2 -10 0 -18 5
-18 4 0 82 72 172 160 130 127 170 160 191 160 15 0 29 -3 31 -7z m-587 -171
c46 -29 61 -44 63 -65 3 -23 0 -27 -21 -27 -14 0 -30 7 -37 15 -7 8 -18 15
-25 15 -6 0 -29 15 -50 33 -27 23 -37 39 -32 50 10 25 35 20 102 -21z m433
-114 c5 -7 13 -46 17 -86 4 -39 11 -75 16 -78 5 -3 19 2 31 10 12 9 34 16 48
16 14 0 31 5 38 12 16 16 62 -6 62 -31 0 -13 -15 -25 -49 -40 -27 -11 -56 -21
-64 -21 -8 0 -24 -8 -35 -17 -18 -17 -19 -23 -9 -79 13 -75 -3 -127 -36 -122
-24 4 -36 38 -39 117 -1 29 -8 55 -14 58 -6 2 -41 -3 -78 -11 -74 -18 -106
-10 -106 24 0 24 22 36 84 45 72 11 84 27 75 106 -5 47 -3 70 8 87 15 25 35
28 51 10z m967 -91 c51 -16 152 -71 188 -102 17 -15 31 -39 34 -60 5 -30 3
-35 -14 -35 -12 0 -26 -7 -33 -15 -7 -8 -28 -15 -46 -15 -37 0 -40 -6 -19 -34
8 -11 15 -32 15 -47 0 -74 -174 -111 -279 -61 -38 19 -45 30 -32 51 7 11 17
11 62 0 86 -22 169 -7 169 31 0 24 -26 42 -103 70 -49 18 -58 25 -55 43 3 24
0 24 161 12 75 -6 87 -5 87 8 0 16 -50 57 -70 57 -6 0 -18 7 -26 15 -9 8 -24
15 -35 15 -43 0 -89 37 -89 71 0 13 37 11 85 -4z m-545 -307 c0 -5 5 -10 12
-10 16 0 148 -64 199 -95 22 -15 80 -47 127 -72 198 -103 337 -230 276 -250
-7 -2 -18 2 -25 9 -8 7 -34 24 -59 37 -45 24 -141 87 -215 142 -54 40 -112 79
-155 104 -90 51 -160 101 -160 112 0 7 -10 13 -22 13 -19 0 -20 2 -8 10 19 13
30 13 30 0z m205 -276 c8 -9 44 -37 78 -62 34 -25 71 -55 82 -66 11 -12 38
-35 60 -53 22 -17 51 -41 65 -53 l25 -21 -33 5 c-28 5 -65 27 -119 71 -40 33
-63 49 -103 75 -25 17 -53 35 -62 42 -14 10 -25 4 -75 -42 -32 -30 -85 -84
-117 -120 -169 -186 -289 -300 -314 -300 -14 0 -16 33 -3 58 11 21 66 187 86
260 8 29 12 64 9 78 -7 28 5 31 27 6 28 -32 30 -41 20 -79 -19 -79 -21 -103
-7 -103 7 0 66 53 132 117 140 138 211 203 224 203 5 0 16 -7 25 -16z m593
-241 c42 -28 65 -41 97 -58 50 -25 89 -61 81 -73 -9 -14 -58 -16 -71 -3 -6 5
-37 24 -70 42 -93 50 -110 70 -83 97 15 15 15 15 46 -5z m-253 -51 c-3 -3 -11
0 -18 7 -9 10 -8 11 6 5 10 -3 15 -9 12 -12z m239 -52 c30 -17 60 -38 66 -45
7 -8 20 -15 29 -15 9 0 27 -9 41 -19 20 -16 22 -21 11 -35 -15 -17 -51 -22
-51 -6 0 5 -43 30 -95 56 -101 49 -110 56 -101 79 8 23 41 18 100 -15z m-734
1 c5 -11 10 -44 10 -75 0 -92 9 -100 75 -66 22 11 56 20 77 20 33 0 38 -3 38
-24 0 -31 -12 -39 -88 -62 -73 -21 -78 -30 -63 -122 13 -79 8 -92 -35 -92 -33
0 -34 1 -34 39 0 21 -3 60 -7 86 -7 53 4 50 -109 27 -53 -11 -84 0 -84 32 0
20 6 26 33 31 134 26 139 29 125 100 -13 73 -10 101 15 113 31 15 35 14 47 -7z
m1296 -61 c43 -42 74 -99 74 -137 0 -89 -94 -220 -175 -242 -58 -16 -86 -14
-149 10 -95 37 -177 142 -161 208 10 41 95 130 144 153 25 11 60 27 76 35 18
8 54 12 92 10 56 -3 67 -7 99 -37z m1459 -130 c8 -13 -13 -50 -40 -72 -12 -9
-39 -50 -60 -89 -33 -62 -38 -82 -38 -138 0 -36 7 -97 17 -134 20 -79 17 -97
-19 -97 -38 0 -62 48 -71 138 -8 91 3 147 51 246 50 105 137 184 160 146z
m1429 -61 c28 -33 28 -46 0 -101 -8 -15 -28 -44 -46 -63 -17 -20 -28 -38 -25
-41 3 -4 36 -1 73 5 73 13 90 7 79 -28 -5 -17 -14 -21 -53 -20 -26 0 -79 -3
-119 -6 -66 -7 -72 -6 -82 14 -7 12 -8 21 -4 21 15 0 135 123 144 148 21 54
-9 66 -76 32 -25 -13 -43 -16 -49 -10 -21 21 59 79 111 80 12 0 33 -13 47 -31z
m-688 -174 c1 -33 -2 -89 -7 -125 -8 -73 -4 -87 19 -68 34 29 108 53 159 53
67 0 86 -18 86 -81 0 -43 -4 -50 -50 -95 -79 -76 -197 -118 -271 -96 -20 6
-38 12 -40 13 -5 3 19 229 27 259 5 17 11 62 14 102 4 75 19 106 46 101 12 -3
16 -17 17 -63z m399 52 c0 -1 10 -16 22 -34 36 -50 53 -111 60 -205 5 -82 4
-89 -26 -152 -34 -69 -89 -126 -121 -126 -28 0 -25 29 5 70 14 19 29 36 33 39
4 3 18 20 30 38 24 34 29 105 13 174 -7 29 -53 108 -95 164 -5 7 -6 20 -2 30
5 14 13 16 44 10 20 -4 37 -8 37 -8z m-913 -107 c21 -6 40 -16 44 -22 8 -13 6
-242 -3 -264 -3 -8 -15 -14 -27 -12 -16 2 -22 11 -24 36 -3 34 -21 42 -41 18
-29 -35 -146 -38 -190 -5 -25 19 -27 24 -21 65 11 73 72 142 154 175 50 21 61
22 108 9z m264 -11 c4 -6 7 -30 8 -53 l2 -41 49 -8 c62 -10 77 -23 50 -43 -13
-10 -32 -13 -56 -9 -47 8 -58 -6 -56 -73 2 -54 -11 -75 -43 -69 -11 2 -15 17
-16 60 0 32 -6 63 -12 69 -6 6 -33 12 -59 12 -42 1 -48 4 -51 24 -3 21 0 22
52 22 60 0 76 13 76 64 0 39 40 71 56 45z m1211 -225 c10 -28 -12 -35 -111
-36 -99 -1 -124 7 -113 36 9 24 215 24 224 0z m3 -89 c0 -22 -4 -23 -81 -27
-120 -5 -159 0 -159 22 0 25 11 28 133 28 105 0 107 -1 107 -23z m-4600 -725
c23 -23 24 -48 10 -195 -11 -113 -19 -192 -55 -595 -14 -156 -25 -290 -25
-298 0 -26 -51 -62 -90 -62 -69 0 -67 -21 -29 405 5 61 14 160 18 220 5 61 14
169 21 240 6 72 13 159 16 194 5 49 11 69 29 87 30 30 78 31 105 4z m1384 -83
c16 -12 18 -25 13 -113 -3 -54 -12 -171 -21 -259 -8 -88 -20 -216 -26 -285
-13 -157 -39 -408 -46 -437 -10 -47 -94 -72 -132 -40 -17 13 -15 36 19 377 11
113 24 255 29 315 23 291 39 426 50 440 16 19 90 20 114 2z m1740 -68 c43 -19
94 -67 117 -109 23 -43 17 -184 -11 -265 -35 -101 -117 -256 -179 -338 -35
-47 -160 -193 -214 -251 -15 -16 -24 -33 -20 -39 8 -13 144 -1 226 19 34 9 78
19 97 23 19 5 49 14 65 21 57 23 264 70 311 70 47 0 101 -26 107 -51 3 -12 -1
-35 -9 -51 -25 -47 -84 -67 -231 -77 -81 -5 -200 -24 -323 -49 -297 -62 -443
-76 -520 -48 -30 11 -35 18 -38 47 -3 32 3 40 60 89 122 104 348 344 348 369
0 5 8 16 18 23 10 7 43 51 74 98 153 231 158 376 15 418 -66 20 -144 -3 -228
-66 -19 -15 -55 -42 -80 -61 -59 -45 -122 -71 -171 -71 -40 0 -40 0 -34 32 19
96 162 212 324 263 118 37 218 39 296 4z m-2528 -17 c24 -16 33 -54 44 -183 8
-88 17 -139 26 -149 11 -11 59 -17 212 -23 209 -9 234 -16 213 -54 -20 -38
-114 -55 -286 -51 -84 1 -157 0 -160 -4 -9 -9 -9 -86 0 -294 l8 -172 -25 -16
c-37 -24 -77 -29 -103 -12 -20 13 -22 24 -28 148 -7 158 -25 298 -40 316 -12
16 -69 10 -192 -19 -156 -37 -241 -14 -214 57 10 29 69 42 226 48 72 4 143 10
156 15 27 11 27 8 42 266 7 110 20 135 73 135 20 0 42 -4 48 -8z m1683 -391
c17 -17 18 -26 11 -52 -6 -18 -15 -38 -22 -45 -13 -12 -514 -55 -635 -54 -96
0 -118 34 -60 95 l32 34 210 12 c178 10 260 15 423 27 12 1 31 -7 41 -17z m55
-264 c21 -21 28 -54 16 -77 -9 -17 -20 -20 -83 -20 -71 0 -190 -14 -387 -45
-132 -20 -303 -20 -324 1 -20 20 -21 68 -1 88 20 20 45 23 250 35 252 15 333
22 400 31 71 9 111 5 129 -13z m-3628 -534 c4 -16 10 -32 14 -38 4 -5 13 -28
20 -50 23 -72 42 -77 78 -22 30 44 92 107 107 107 38 0 14 -43 -100 -184 -44
-54 -104 -129 -132 -166 -29 -37 -60 -70 -68 -74 -35 -13 -24 27 27 99 29 42
57 82 62 90 7 9 0 44 -22 107 -42 125 -45 158 -12 158 13 0 22 -9 26 -27z
m398 -85 c0 -46 1 -47 42 -63 30 -11 41 -21 37 -31 -6 -17 -27 -18 -52 -2 -28
17 -48 4 -55 -39 -9 -47 -33 -86 -48 -77 -6 4 -8 25 -5 56 8 65 2 78 -38 78
-33 0 -61 21 -51 39 6 9 59 7 88 -4 12 -5 18 1 23 26 18 82 60 94 59 17z m336
-123 c16 -9 33 -27 36 -41 7 -26 -21 -130 -37 -140 -5 -3 -9 -20 -9 -38 0 -17
-4 -36 -8 -41 -5 -6 -15 -36 -22 -68 -7 -32 -19 -66 -27 -75 -12 -16 -14 -16
-27 1 -12 16 -12 25 -1 60 47 153 47 151 -22 153 -65 1 -121 27 -129 60 -9 33
32 93 82 121 47 26 123 29 164 8z m564 -49 c22 -8 52 -29 68 -47 24 -29 27
-43 28 -97 0 -89 -33 -144 -105 -177 -23 -10 -48 -11 -99 -5 -60 7 -73 13
-108 47 -36 34 -39 42 -35 79 3 28 17 59 44 95 49 66 68 83 113 102 44 19 47
19 94 3z m-384 -36 c84 -16 100 -22 100 -36 0 -15 -43 -29 -59 -20 -5 4 -33
11 -62 16 -29 6 -56 15 -60 22 -11 18 2 40 20 33 9 -4 36 -11 61 -15z m28 -78
c29 -5 57 -13 63 -19 15 -15 1 -36 -20 -28 -9 4 -42 8 -74 10 -77 5 -94 11
-100 37 -6 22 -14 22 131 0z m2182 -936 c0 -7 -22 -38 -49 -67 -28 -30 -63
-79 -78 -109 -30 -58 -29 -55 -20 -285 2 -55 0 -60 -19 -63 -16 -2 -28 7 -44
33 -20 32 -22 46 -18 138 3 96 6 107 47 188 47 97 120 179 158 179 13 0 23 -6
23 -14z m420 -112 c39 -33 54 -63 70 -142 15 -73 9 -169 -15 -227 -10 -22 -37
-64 -62 -93 -35 -41 -51 -52 -74 -52 -17 0 -29 5 -29 13 0 6 24 37 54 68 60
62 76 102 76 189 0 55 -33 144 -66 181 -22 24 -35 77 -21 83 24 9 36 5 67 -20z
m-730 -109 c57 -29 61 -64 30 -250 -31 -186 -66 -273 -119 -295 -61 -25 -246
29 -201 60 8 5 22 8 30 6 8 -3 45 -7 81 -11 89 -9 103 4 119 109 7 44 18 100
26 124 7 25 11 49 8 53 -3 5 -28 -2 -57 -15 -52 -23 -157 -30 -185 -12 -7 4
-12 24 -12 45 0 44 32 90 99 142 74 57 129 71 181 44z m2315 -5 c14 -6 0 -9
-45 -9 -45 -1 -60 2 -50 9 18 12 68 12 95 0z m-1940 -95 c17 -32 36 -60 42
-62 6 -2 37 19 68 47 46 41 59 49 71 39 22 -18 18 -26 -38 -85 -44 -47 -50
-58 -40 -72 6 -9 26 -43 43 -76 24 -47 28 -61 17 -67 -26 -17 -37 -8 -71 48
-18 32 -41 59 -50 61 -10 2 -40 -15 -69 -38 -55 -43 -81 -48 -86 -15 -2 14 12
32 48 59 28 21 50 46 50 57 0 10 -13 41 -30 69 -33 56 -36 70 -18 88 19 19 29
10 63 -53z m699 -178 c44 -8 73 -18 80 -29 21 -33 -5 -38 -98 -17 -102 23
-126 33 -126 56 0 17 -1 17 144 -10z m-110 -67 c17 -5 66 -17 109 -25 53 -11
77 -21 77 -31 0 -11 -14 -13 -72 -9 -73 6 -145 22 -162 36 -9 8 -1 39 10 39 4
0 21 -4 38 -10z"/>
<path d="M2980 4968 c-60 -20 -176 -103 -190 -138 -19 -46 5 -90 76 -137 65
-43 124 -49 182 -19 61 32 122 145 108 200 -3 12 -20 39 -38 59 -37 43 -80 53
-138 35z"/>
<path d="M5420 4402 c-59 -29 -80 -46 -101 -79 -24 -38 -18 -53 19 -53 64 0
212 100 199 133 -9 23 -71 22 -117 -1z"/>
<path d="M4706 4487 c-56 -32 -103 -93 -90 -115 15 -23 68 -27 107 -8 18 8 49
37 71 65 32 42 36 54 26 66 -18 22 -69 18 -114 -8z"/>
<path d="M982 1891 c-43 -39 -42 -68 1 -76 75 -14 123 14 129 75 3 23 0 25
-48 28 -45 3 -55 -1 -82 -27z"/>
<path d="M1630 1873 c-43 -15 -113 -104 -130 -164 -9 -29 -6 -35 21 -60 54
-48 150 -50 196 -4 79 79 66 199 -25 225 -40 11 -40 11 -62 3z"/>
<path d="M3081 559 c-54 -38 -63 -47 -78 -81 -15 -34 -4 -42 43 -33 91 17 168
74 162 119 -2 17 -11 22 -43 23 -31 2 -50 -4 -84 -28z"/>
<path d="M3882 6388 c6 -18 25 -20 31 -3 5 10 0 15 -14 15 -12 0 -19 -5 -17
-12z"/>
<path d="M4820 6381 c0 -26 23 -33 49 -15 31 22 26 34 -14 34 -28 0 -35 -4
-35 -19z"/>
<path d="M3560 6330 c-12 -8 -11 -10 8 -10 12 0 22 5 22 10 0 13 -11 13 -30 0z"/>
<path d="M129 2233 c-16 -4 -27 -22 -49 -80 -16 -43 -8 -51 47 -50 58 0 129
30 138 57 15 48 -66 92 -136 73z"/>
<path d="M5950 27 l-45 -22 79 -3 c84 -3 98 1 75 22 -26 25 -62 26 -109 3z"/>
<path d="M5410 10 c0 -5 7 -10 15 -10 8 0 15 5 15 10 0 6 -7 10 -15 10 -8 0
-15 -4 -15 -10z"/>
</g>
</svg>
